# xmcd CD database file
#
# Track frame offsets:
#	150
#	16230
#	37265
#	60137
#	88972
#	107295
#	124180
#	143507
#	182592
#	209750
#
# Disc length: 3022 seconds
#
# Revision: 2
# Processed by: cddbd v1.5.1PL0 Copyright (c) Steve Scherf et al.
# Submitted via: CDex 1.51
#
DISCID=830bcc0a
DTITLE=SAKANA - Welcome
DYEAR=1999
DGENRE=Blues
TTITLE0=チョーキータウン
TTITLE1=惑星
TTITLE2=ロンリーメロディー
TTITLE3=トテリングウェイ
TTITLE4=レピア
TTITLE5=ジョニー
TTITLE6=ブルー
TTITLE7=サムバディー
TTITLE8=リムジン
TTITLE9=マイ サン ルーム
EXTD=YEAR: 1999
EXTT0=
EXTT1=
EXTT2=
EXTT3=
EXTT4=
EXTT5=
EXTT6=
EXTT7=
EXTT8=
EXTT9=
PLAYORDER=
